# xmcd CD database file
#
# Track frame offsets:
#	150
#	19586
#	32999
#	49112
#	66490
#	79228
#	92076
#	101511
#	108579
#	124345
#	134658
#	145326
#	158451
#	175374
#	187952
#
# Disc length: 2723 seconds
#
# Revision: 0
# Processed by: cddbd v1.5.2PL0 Copyright (c) Steve Scherf et al.
# Submitted via: CDex 1.51
#
DISCID=d40aa10f
DTITLE=Roger Cicero - Männsersachen (New)
DYEAR=2007
DGENRE=Jazz
TTITLE0=Zieh die Schuh aus
TTITLE1=Kein Mann für Eine Frau
TTITLE2=Kompromisse
TTITLE3=Ich atme ein
TTITLE4=Schieß mich doch zum Mond
TTITLE5=Wenn Sie Dich fragt
TTITLE6=Fachmann in Sachen Anna
TTITLE7=Ich Idiot ließ Dich gehen
TTITLE8=Mein guter Stern auf allen Wegen
TTITLE9=Murphys Gesetz
TTITLE10=Schön dass Du da bist
TTITLE11=Das ganze Leben ist ein Zoo
TTITLE12=Du willst es doch auch
TTITLE13=So geil Berlin
TTITLE14=Frauen regier´n die Welt
EXTD=YEAR: 2007
EXTT0=
EXTT1=
EXTT2=
EXTT3=
EXTT4=
EXTT5=
EXTT6=
EXTT7=
EXTT8=
EXTT9=
EXTT10=
EXTT11=
EXTT12=
EXTT13=
EXTT14=
PLAYORDER=
